<?xml version="1.0" standalone="no"?>
<!DOCTYPE svg PUBLIC "-//W3C//DTD SVG 20010904//EN"
 "http://www.w3.org/TR/2001/REC-SVG-20010904/DTD/svg10.dtd">
<svg version="1.0" xmlns="http://www.w3.org/2000/svg"
 width="1440.000000pt" height="1440.000000pt" viewBox="0 0 1440.000000 1440.000000"
 preserveAspectRatio="xMidYMid meet">
<metadata>
Created by potrace 1.14, written by Peter Selinger 2001-2017
</metadata>
<g transform="translate(0.000000,1440.000000) scale(0.100000,-0.100000)"
fill="#000000" stroke="none">
<path d="M6888 14396 c-1 -2 -59 -7 -128 -10 -69 -4 -141 -9 -160 -11 -19 -2
-62 -6 -95 -9 -143 -14 -176 -18 -275 -32 -58 -8 -123 -17 -145 -20 -22 -3
-42 -7 -45 -9 -3 -2 -29 -6 -59 -10 -30 -4 -61 -8 -70 -10 -9 -2 -74 -15 -146
-30 -343 -69 -760 -188 -1055 -300 -52 -20 -99 -38 -105 -39 -5 -2 -22 -8 -37
-14 -165 -68 -251 -104 -293 -123 -27 -13 -52 -23 -55 -24 -3 0 -93 -44 -200
-96 -190 -94 -449 -236 -557 -305 -29 -19 -55 -34 -57 -34 -21 0 -523 -352
-666 -467 -81 -65 -272 -224 -296 -247 -6 -6 -51 -47 -100 -91 -157 -141 -430
-420 -559 -570 -27 -32 -57 -66 -65 -75 -14 -14 -113 -136 -150 -184 -8 -10
-23 -27 -32 -38 -10 -10 -18 -22 -18 -27 0 -5 -3 -11 -8 -13 -8 -3 -66 -76
-92 -114 -8 -12 -54 -78 -103 -146 -97 -136 -90 -127 -152 -220 -47 -73 -217
-353 -229 -378 -4 -8 -27 -51 -52 -95 -110 -195 -271 -542 -395 -848 -63 -155
-217 -619 -234 -704 -1 -10 -14 -61 -28 -113 -40 -154 -83 -343 -101 -450 -2
-14 -11 -63 -20 -110 -9 -47 -18 -101 -20 -120 -3 -19 -11 -82 -20 -140 -13
-95 -18 -139 -32 -280 -23 -226 -29 -360 -29 -685 0 -324 9 -527 30 -710 3
-27 8 -75 10 -105 3 -30 7 -64 10 -75 2 -11 6 -47 10 -80 3 -33 8 -69 10 -81
3 -12 7 -39 11 -60 3 -21 12 -77 20 -124 9 -47 18 -98 20 -115 3 -16 23 -111
45 -210 130 -587 338 -1171 607 -1700 98 -192 213 -399 224 -403 4 -2 8 -8 8
-13 0 -6 16 -35 35 -65 19 -30 35 -57 35 -60 0 -2 5 -10 10 -17 6 -7 39 -55
73 -108 34 -52 67 -102 72 -111 24 -36 91 -134 102 -148 6 -8 62 -82 124 -165
285 -379 657 -779 1003 -1078 12 -10 34 -30 50 -44 53 -47 281 -229 384 -307
176 -133 607 -416 632 -416 5 0 10 -4 12 -8 3 -8 49 -35 213 -124 100 -55 388
-199 465 -232 36 -16 90 -40 120 -53 30 -13 64 -28 75 -33 154 -72 727 -268
922 -315 10 -3 72 -18 138 -35 122 -30 412 -91 520 -109 97 -16 182 -28 320
-46 28 -3 64 -8 80 -10 17 -2 62 -7 100 -10 39 -3 86 -8 105 -10 217 -27 936
-27 1200 0 19 2 64 6 100 10 36 3 83 8 105 10 57 6 216 27 240 31 10 2 37 6
60 9 76 11 265 45 338 61 39 9 91 20 115 25 306 62 781 209 1127 349 263 107
673 302 815 388 19 12 42 25 50 29 8 4 42 23 75 43 33 20 67 40 75 44 16 7 41
22 80 47 249 162 346 228 473 321 133 97 370 284 417 328 9 8 43 38 75 65 149
128 434 408 575 564 41 46 80 89 86 95 5 6 48 56 94 111 46 55 86 102 90 105
3 3 64 81 134 173 427 564 743 1132 1010 1819 25 65 46 123 46 131 0 8 3 16 6
20 20 20 199 617 218 729 3 15 7 31 9 35 3 5 8 24 11 43 6 36 11 65 21 110 3
14 7 34 9 45 2 11 11 54 19 95 9 41 18 91 21 110 3 19 10 58 15 85 5 28 12 77
16 110 3 33 8 67 10 75 2 8 7 40 10 70 4 30 8 69 10 85 2 17 6 64 10 105 4 41
8 86 10 98 12 74 20 318 19 607 0 371 -8 536 -39 800 -2 17 -6 55 -10 85 -3
30 -8 66 -10 80 -9 49 -15 89 -20 131 -3 24 -13 82 -21 129 -9 47 -18 99 -20
115 -12 72 -76 351 -109 475 -20 74 -37 142 -40 150 -2 8 -4 15 -5 15 -1 0 -3
9 -5 20 -15 74 -186 572 -234 680 -5 11 -32 74 -60 140 -28 66 -56 133 -63
149 -38 88 -227 458 -288 566 -72 126 -239 401 -250 410 -5 5 -29 40 -55 81
-16 25 -89 132 -102 149 -6 8 -65 87 -131 175 -67 88 -129 169 -139 180 -10
11 -49 58 -87 105 -39 47 -73 87 -76 90 -4 3 -47 50 -96 105 -91 102 -371 385
-460 465 -27 25 -80 72 -118 105 -38 33 -74 65 -80 70 -6 6 -36 30 -66 55 -30
25 -57 47 -60 50 -11 12 -192 152 -290 225 -114 85 -398 274 -525 351 -231
139 -597 333 -753 398 -57 24 -129 56 -209 92 -17 8 -34 14 -38 14 -4 0 -21 7
-38 15 -83 37 -304 118 -497 179 -148 48 -285 89 -337 101 -10 3 -72 18 -138
35 -174 43 -485 106 -620 125 -23 3 -50 7 -60 9 -11 2 -47 7 -80 10 -33 4 -67
9 -75 11 -8 2 -46 7 -85 10 -38 4 -83 9 -100 10 -16 2 -66 6 -110 10 -44 4
-100 9 -125 11 -54 5 -777 14 -782 10z"/>
</g>
</svg>
